<?xml version="1.0" encoding="UTF-8"?>
<!DOCTYPE svg PUBLIC "-//W3C//DTD SVG 1.1//EN" "http://www.w3.org/Graphics/SVG/1.1/DTD/svg11.dtd">
<!-- Creator: CorelDRAW X5 -->
<svg xmlns="http://www.w3.org/2000/svg" xml:space="preserve" width="52.0472mm" height="36.1386mm" style="shape-rendering:geometricPrecision; text-rendering:geometricPrecision; image-rendering:optimizeQuality; fill-rule:evenodd; clip-rule:evenodd"
viewBox="0 0 2321 1612"
 xmlns:xlink="http://www.w3.org/1999/xlink">
 <defs>
  <style type="text/css">
   <![CDATA[
    .str0 {stroke:#FEFEFE;stroke-width:22.3009}
    .fil0 {fill:none}
    .fil1 {fill:#FEFEFE}
   ]]>
  </style>
 </defs>
 <g id="Capa_x0020_1">
  <metadata id="CorelCorpID_0Corel-Layer"/>
  <path class="fil0 str0" d="M13 1107l629 -571c178,-162 151,-247 151,-511l-721 673c-77,101 -60,240 -60,408zm0 480l354 -315c178,-176 159,-187 159,-510l-354 316c-173,145 -159,211 -159,510z"/>
  <path class="fil1" d="M1220 913c3,-76 39,-155 95,-172l1 172 -96 0zm-171 228l159 0 0 -84 108 0 -1 85 146 1 0 -643c-34,-3 -164,55 -192,69 -31,16 -54,35 -77,53 -20,17 -42,46 -60,73 -75,115 -83,287 -83,444zm1035 -228c0,-75 42,-159 95,-172l0 172 -95 0zm-12 145l107 0 0 86c23,2 123,3 142,0l0 -641c-41,-3 -209,70 -257,116 -19,18 -43,40 -60,65 -87,133 -91,299 -91,459 31,0 135,2 158,-1l0 -82zm-554 85c65,13 187,-42 237,-85 15,-12 31,-23 37,-30 18,-24 41,-48 57,-76 33,-55 57,-120 72,-191 11,-58 26,-185 16,-244l-157 -1c3,84 5,163 -11,244 -12,55 -43,146 -99,165l0 -410 -152 -1 0 631zm-402 -674l-298 0c-12,5 -23,5 -35,13 -30,19 -51,48 -60,86 -7,37 -1,514 -1,576l158 -1 0 -253 152 -2 0 -163 -152 -2c-1,-72 1,-85 75,-85 34,0 134,4 161,-1l0 -169z"/>
 </g>
</svg>
