<?xml version="1.0" encoding="UTF-8"?>
<!DOCTYPE svg PUBLIC "-//W3C//DTD SVG 1.1//EN" "http://www.w3.org/Graphics/SVG/1.1/DTD/svg11.dtd">
<!-- Creator: CorelDRAW X5 -->
<svg xmlns="http://www.w3.org/2000/svg" xml:space="preserve" width="122.03mm" height="35.0061mm" style="shape-rendering:geometricPrecision; text-rendering:geometricPrecision; image-rendering:optimizeQuality; fill-rule:evenodd; clip-rule:evenodd"
viewBox="0 0 11725 3363"
 xmlns:xlink="http://www.w3.org/1999/xlink">
 <defs>
  <style type="text/css">
   <![CDATA[
    .fil0 {fill:#FEFEFE}
   ]]>
  </style>
 </defs>
 <g id="Capa_x0020_1">
  <metadata id="CorelCorpID_0Corel-Layer"/>
  <path class="fil0" d="M3 2330c120,-80 156,-119 258,-222l1049 -969c455,-352 374,-549 374,-1139l-1552 1451c-166,217 -129,517 -129,880zm0 1033c65,-17 634,-551 763,-678 383,-378 342,-404 342,-1099 -142,75 -565,516 -762,680 -373,312 -343,455 -343,1098zm3550 -1415l0 -486c108,-2 219,-17 315,20 79,31 134,110 128,223 -3,105 -64,176 -134,210 -96,48 -196,36 -309,33zm-187 -632l0 1412c6,2 163,14 181,-7 15,-16 6,-554 6,-624 73,0 67,-6 99,43 82,132 245,368 341,511 70,105 15,81 283,81 -15,-44 -85,-130 -111,-166l-318 -448c-15,-21 -20,-24 -29,-47 158,-26 242,-87 306,-179 73,-104 88,-272 26,-394 -53,-106 -158,-163 -309,-183 -82,-11 -400,-16 -476,1zm-569 -22l-149 0c-67,25 -155,3 -321,94 -184,101 -304,295 -341,499 -64,348 67,714 423,823 207,63 546,43 727,-45l0 -654 -181 -3 0 542c-123,16 -193,46 -333,34 -108,-10 -204,-51 -266,-102 -228,-190 -242,-602 -93,-810 50,-69 123,-133 198,-169 96,-46 201,-58 321,-46 161,15 190,46 301,70 12,-21 38,-137 38,-167 -50,-8 -96,-31 -152,-42 -41,-9 -149,-16 -172,-25zm1599 952c0,677 811,546 951,347 15,-18 29,-38 41,-53 102,-130 96,-316 96,-468 0,-252 0,-504 0,-756 -32,-7 -152,-13 -169,5 -23,16 -18,51 -15,85 9,223 3,517 3,746 0,207 -32,361 -198,417 -149,49 -359,47 -461,-102 -85,-129 -67,-372 -67,-545 0,-202 0,-404 0,-606 -44,-8 -131,-3 -181,-3l0 933z"/>
  <path class="fil0" d="M9352 2253c6,-163 85,-335 204,-370l3 370 -207 0zm-368 491l341 0 0 -180 233 0 -3 183 315 3 0 -1384c-73,-6 -353,118 -414,149 -67,34 -117,75 -166,115 -44,38 -90,98 -128,158 -161,247 -178,619 -178,956zm2230 -491c0,-162 90,-342 204,-371l0 371 -204 0zm-26 311l231 0 0 184c50,5 266,6 306,-1l0 -1381c-88,-5 -449,151 -554,250 -41,39 -93,86 -128,140 -187,288 -196,644 -196,988 67,0 292,5 341,-3l0 -177zm-1194 183c140,28 403,-92 511,-183 32,-27 67,-49 79,-64 38,-51 88,-104 123,-164 70,-119 123,-259 155,-413 23,-126 55,-399 35,-526l-339 -3c6,182 12,351 -23,525 -26,118 -93,313 -213,354l0 -883 -327 -3 0 1359zm-867 -1453l-642 0c-26,12 -50,11 -76,28 -64,41 -111,103 -128,186 -15,80 -3,1108 -3,1242l341 -3 0 -544 327 -3 0 -351 -327 -3c-3,-155 3,-184 161,-184 73,0 289,10 347,-3l0 -364zm-2314 772c-6,-150 20,-308 90,-413 58,-88 163,-176 318,-195 239,-30 397,111 458,302 58,179 55,472 -55,628 -61,84 -161,179 -315,197 -327,39 -482,-217 -496,-519zm531 -772l-128 0c-26,10 -99,17 -131,27 -479,143 -566,767 -382,1133 90,181 286,300 549,295 193,-4 341,-59 470,-196 111,-118 178,-260 190,-481 15,-218 -23,-398 -128,-543 -166,-232 -350,-201 -438,-234z"/>
  <path class="fil0" d="M5672 1317l0 1412 181 3 0 -547c228,7 324,4 484,-107 236,-165 277,-619 -102,-738 -123,-39 -470,-46 -563,-23zm181 146c198,0 470,-28 470,267 0,199 -134,303 -336,305 -73,1 -58,2 -134,-6l0 -566z"/>
 </g>
</svg>
